<?xml version="1.0" encoding="utf-8"?>
<svg id="master-artboard" viewBox="0 0 1400 980" xmlns="http://www.w3.org/2000/svg" width="1400px" height="980px" version="1.1" style="shape-rendering:geometricPrecision; text-rendering:geometricPrecision; image-rendering:optimizeQuality; fill-rule:evenodd; clip-rule:evenodd"><g transform="matrix(10.687021968928912, 0, 0, 10.687021968928912, 0.00002043153472186532, 254.8855137647733)"><g _ngcontent-jvn-c40="" id="Page-1" stroke="none" stroke-width="1" fill="none" fill-rule="evenodd"><path _ngcontent-jvn-c40="" d="M 12.5 28 C 10.5670034 28 9 29.5709366 9 31.5 C 9 33.4329966 10.5709366 35 12.5 35 C 14.4329966 35 16 33.4290634 16 31.5 C 16 29.5670034 14.4290634 28 12.5 28 Z M 2 30 C 0.8954304999999995 30 0 30.8877296 0 32 C 0 33.1045695 0.8877296000000008 34 2 34 C 3.1045695 34 4 33.1122704 4 32 C 4 30.8954305 3.1122704 30 2 30 Z M 12.5 18 C 10.5670034 18 9 19.5709366 9 21.5 C 9 23.4329966 10.5709366 25 12.5 25 C 14.4329966 25 16 23.4290634 16 21.5 C 16 19.5670034 14.4290634 18 12.5 18 Z M 2 20 C 0.8954304999999995 20 0 20.8877296 0 22 C 0 23.1045695 0.8877296000000008 24 2 24 C 3.1045695 24 4 23.1122704 4 22 C 4 20.8954305 3.1122704 20 2 20 Z" id="icon" fill="#FF04B4" fill-rule="nonzero" transform="matrix(1.0000020265579224, 1.2374093749656367e-8, -1.2374093749656367e-8, 1.0000020265579224, 5.005599812879055, 4.499352523692167)"/><path _ngcontent-jvn-c40="" d="M40.728,38 L40.728,35.624 L34.41,35.624 L34.41,25.4 L31.494,25.4 L31.494,38 L40.728,38 Z M45.156,38.144 C46.596,38.144 47.58,37.694 48.108,36.794 L48.108,36.794 L48.108,38 L50.736,38 L50.736,32.474 C50.736,31.034 50.334,29.957 49.53,29.243 C48.726,28.529 47.574,28.172 46.074,28.172 C45.294,28.172 44.535,28.274 43.797,28.478 C43.059,28.682 42.426,28.97 41.898,29.342 L41.898,29.342 L42.906,31.304 C43.254,31.028 43.677,30.809 44.175,30.647 C44.673,30.485 45.18,30.404 45.696,30.404 C46.44,30.404 46.998,30.569 47.37,30.899 C47.742,31.229 47.928,31.7 47.928,32.312 L47.928,32.312 L45.696,32.312 C44.28,32.312 43.233,32.57 42.555,33.086 C41.877,33.602 41.538,34.31 41.538,35.21 C41.538,35.774 41.682,36.278 41.97,36.722 C42.258,37.166 42.675,37.514 43.221,37.766 C43.767,38.018 44.412,38.144 45.156,38.144 Z M45.858,36.254 C45.366,36.254 44.979,36.149 44.697,35.939 C44.415,35.729 44.274,35.444 44.274,35.084 C44.274,34.328 44.85,33.95 46.002,33.95 L46.002,33.95 L47.928,33.95 L47.928,34.94 C47.772,35.372 47.508,35.699 47.136,35.921 C46.764,36.143 46.338,36.254 45.858,36.254 Z M56.082,38 L56.082,33.428 C56.082,32.528 56.31,31.853 56.766,31.403 C57.222,30.953 57.852,30.728 58.656,30.728 C58.764,30.728 58.974,30.74 59.286,30.764 L59.286,30.764 L59.286,28.172 C58.542,28.172 57.885,28.292 57.315,28.532 C56.745,28.772 56.292,29.126 55.956,29.594 L55.956,29.594 L55.956,28.316 L53.274,28.316 L53.274,38 L56.082,38 Z M66.558,38 L70.644,28.316 L67.944,28.316 L65.172,34.904 L62.49,28.316 L59.592,28.316 L63.66,38 L66.558,38 Z M74.784,38.144 C76.224,38.144 77.208,37.694 77.736,36.794 L77.736,36.794 L77.736,38 L80.364,38 L80.364,32.474 C80.364,31.034 79.962,29.957 79.158,29.243 C78.354,28.529 77.202,28.172 75.702,28.172 C74.922,28.172 74.163,28.274 73.425,28.478 C72.687,28.682 72.054,28.97 71.526,29.342 L71.526,29.342 L72.534,31.304 C72.882,31.028 73.305,30.809 73.803,30.647 C74.301,30.485 74.808,30.404 75.324,30.404 C76.068,30.404 76.626,30.569 76.998,30.899 C77.37,31.229 77.556,31.7 77.556,32.312 L77.556,32.312 L75.324,32.312 C73.908,32.312 72.861,32.57 72.183,33.086 C71.505,33.602 71.166,34.31 71.166,35.21 C71.166,35.774 71.31,36.278 71.598,36.722 C71.886,37.166 72.303,37.514 72.849,37.766 C73.395,38.018 74.04,38.144 74.784,38.144 Z M75.486,36.254 C74.994,36.254 74.607,36.149 74.325,35.939 C74.043,35.729 73.902,35.444 73.902,35.084 C73.902,34.328 74.478,33.95 75.63,33.95 L75.63,33.95 L77.556,33.95 L77.556,34.94 C77.4,35.372 77.136,35.699 76.764,35.921 C76.392,36.143 75.966,36.254 75.486,36.254 Z M97.428,38 L97.428,35.624 L91.11,35.624 L91.11,25.4 L88.194,25.4 L88.194,38 L97.428,38 Z M101.856,38.144 C103.296,38.144 104.28,37.694 104.808,36.794 L104.808,36.794 L104.808,38 L107.436,38 L107.436,32.474 C107.436,31.034 107.034,29.957 106.23,29.243 C105.426,28.529 104.274,28.172 102.774,28.172 C101.994,28.172 101.235,28.274 100.497,28.478 C99.759,28.682 99.126,28.97 98.598,29.342 L98.598,29.342 L99.606,31.304 C99.954,31.028 100.377,30.809 100.875,30.647 C101.373,30.485 101.88,30.404 102.396,30.404 C103.14,30.404 103.698,30.569 104.07,30.899 C104.442,31.229 104.628,31.7 104.628,32.312 L104.628,32.312 L102.396,32.312 C100.98,32.312 99.933,32.57 99.255,33.086 C98.577,33.602 98.238,34.31 98.238,35.21 C98.238,35.774 98.382,36.278 98.67,36.722 C98.958,37.166 99.375,37.514 99.921,37.766 C100.467,38.018 101.112,38.144 101.856,38.144 Z M102.558,36.254 C102.066,36.254 101.679,36.149 101.397,35.939 C101.115,35.729 100.974,35.444 100.974,35.084 C100.974,34.328 101.55,33.95 102.702,33.95 L102.702,33.95 L104.628,33.95 L104.628,34.94 C104.472,35.372 104.208,35.699 103.836,35.921 C103.464,36.143 103.038,36.254 102.558,36.254 Z M115.698,38.144 C116.598,38.144 117.417,37.937 118.155,37.523 C118.893,37.109 119.472,36.527 119.892,35.777 C120.312,35.027 120.522,34.154 120.522,33.158 C120.522,32.162 120.312,31.289 119.892,30.539 C119.472,29.789 118.893,29.207 118.155,28.793 C117.417,28.379 116.598,28.172 115.698,28.172 C114.462,28.172 113.49,28.562 112.782,29.342 L112.782,29.342 L112.782,24.644 L109.974,24.644 L109.974,38 L112.656,38 L112.656,36.884 C113.352,37.724 114.366,38.144 115.698,38.144 Z M115.212,35.84 C114.492,35.84 113.901,35.597 113.439,35.111 C112.977,34.625 112.746,33.974 112.746,33.158 C112.746,32.342 112.977,31.691 113.439,31.205 C113.901,30.719 114.492,30.476 115.212,30.476 C115.932,30.476 116.523,30.719 116.985,31.205 C117.447,31.691 117.678,32.342 117.678,33.158 C117.678,33.974 117.447,34.625 116.985,35.111 C116.523,35.597 115.932,35.84 115.212,35.84 Z M125.652,38.144 C126.6,38.144 127.419,38.015 128.109,37.757 C128.799,37.499 129.324,37.136 129.684,36.668 C130.044,36.2 130.224,35.666 130.224,35.066 C130.224,34.358 130.038,33.806 129.666,33.41 C129.294,33.014 128.856,32.741 128.352,32.591 C127.848,32.441 127.2,32.3 126.408,32.168 C125.7,32.06 125.184,31.946 124.86,31.826 C124.536,31.706 124.374,31.496 124.374,31.196 C124.374,30.932 124.524,30.716 124.824,30.548 C125.124,30.38 125.574,30.296 126.174,30.296 C127.182,30.296 128.112,30.536 128.964,31.016 L128.964,31.016 L129.9,29.018 C129.456,28.754 128.895,28.547 128.217,28.397 C127.539,28.247 126.858,28.172 126.174,28.172 C125.25,28.172 124.449,28.304 123.771,28.568 C123.093,28.832 122.577,29.201 122.223,29.675 C121.869,30.149 121.692,30.692 121.692,31.304 C121.692,32.036 121.881,32.6 122.259,32.996 C122.637,33.392 123.084,33.668 123.6,33.824 C124.116,33.98 124.77,34.118 125.562,34.238 C126.234,34.322 126.732,34.424 127.056,34.544 C127.38,34.664 127.542,34.862 127.542,35.138 C127.542,35.726 126.948,36.02 125.76,36.02 C125.172,36.02 124.572,35.933 123.96,35.759 C123.348,35.585 122.826,35.36 122.394,35.084 L122.394,35.084 L121.458,37.1 C121.914,37.4 122.526,37.649 123.294,37.847 C124.062,38.045 124.848,38.144 125.652,38.144 Z" id="LarvaLabs" fill="#FF04B4" fill-rule="nonzero"/><path _ngcontent-jvn-c40="" d="M29.131857,20.0507038 C29.2554047,20.0081629 29.3610117,19.9421861 29.448678,19.8527735 C29.5363443,19.7633608 29.5987643,19.6579633 29.635938,19.536581 C29.6731117,19.4151986 29.6880778,19.2866563 29.6808363,19.150954 C29.0292632,14.7358792 27.8976335,12.2234194 26.2859472,11.6135746 C25.4980447,11.3320881 24.7647098,11.4957554 24.0859424,12.1045766 C23.4010977,12.6957481 22.878884,13.6158952 22.5193013,14.8650178 C22.1375974,13.8711406 21.7210484,13.234751 21.2696541,12.9558489 C20.919245,12.7408862 20.5587188,12.6972161 20.1880755,12.8248389 C19.9762793,12.8977661 19.8211985,13.0350693 19.722833,13.2367484 C19.6244676,13.4384275 19.6117485,13.6451651 19.6846757,13.8569613 C19.8183757,14.2452542 20.0887792,14.4285384 20.4958861,14.4068138 C20.6430013,14.5813658 20.7915706,14.8429981 20.9415938,15.1917106 L21.0705413,15.5119328 C21.135193,15.6827068 21.2001118,15.8694751 21.2652977,16.0722377 L21.3960255,16.4990887 L21.3960255,16.4990887 L21.5274655,16.9685913 L21.5274655,16.9685913 L21.6596176,17.4807453 L21.6596176,17.4807453 L21.7924819,18.0355509 L21.7924819,18.0355509 L21.9260584,18.6330081 L21.9260584,18.6330081 L22.060347,19.2731167 L22.060347,19.2731167 L22.1953478,19.9558769 C22.2179073,20.0732246 22.2404964,20.1923494 22.2631152,20.3132514 C22.3134798,20.6315277 22.3668831,20.958629 22.4233249,21.294555 C22.4786025,21.5124285 22.5953629,21.6795183 22.7736061,21.7958245 C22.9518493,21.9121307 23.1529463,21.9514699 23.376897,21.913842 C23.5947704,21.8585644 23.767792,21.7446971 23.8959617,21.5722401 C24.0241314,21.3997831 24.0694023,21.2015792 24.0317744,20.9776285 L23.8542061,20.0319153 L23.8542061,20.0319153 C23.6327695,18.5287818 23.6692908,17.1441199 23.9637699,15.8779297 C24.258249,14.6117395 24.6541673,13.7548217 25.151525,13.3071762 C25.3505844,13.1399233 25.5389447,13.0849367 25.7166058,13.1422166 C26.1254591,13.2975709 26.5278977,13.8499791 26.9239216,14.799441 C27.0724305,15.1554892 27.2194693,15.5939432 27.3650379,16.1148029 L27.5101164,16.6631311 C27.5583126,16.8550634 27.6063454,17.0561519 27.6542149,17.2663965 L27.7973332,17.9245991 L27.7973332,17.9245991 L27.9394714,18.6377387 C27.9866875,18.8846082 28.0337402,19.1406338 28.0806295,19.4058156 C28.1121802,19.6121166 28.2157033,19.7837644 28.3911989,19.9207589 C28.5666946,20.0577535 28.7664178,20.1074368 28.9903685,20.0698089 C29.0317451,20.075304 29.0789079,20.0689357 29.131857,20.0507038 Z M34.0296432,18.3642608 C34.9474266,18.0482426 35.669736,17.365202 36.1965717,16.3151388 C36.7234073,15.2650756 36.8474669,14.0773078 36.5687504,12.7518354 C36.247493,11.3028152 35.5447652,10.3799909 34.4605669,9.98336247 C34.1940753,9.89744262 33.9220886,9.8528994 33.6446067,9.84973281 C33.6908963,9.754825 33.713459,9.64834478 33.7122947,9.53029216 C33.7160435,9.31183659 33.6403686,9.12072874 33.4852702,8.95696862 C33.3301718,8.7932085 33.1433948,8.70945408 32.9249393,8.70570535 C31.6495052,8.67105845 30.6504239,9.12365212 29.9276954,10.0634863 C29.4905284,10.6286023 29.2109162,11.307277 29.088859,12.0995103 C28.9668017,12.8917436 29.0190758,13.7029187 29.2456813,14.5330359 C29.6806604,16.140321 30.3232153,17.2467381 31.1733457,17.8522872 C32.0234762,18.4578363 32.8931132,18.6470171 33.7822566,18.4198295 C33.8765823,18.4070928 33.9590445,18.3885699 34.0296432,18.3642608 Z M33.5510292,16.8193165 L33.3950224,16.8652023 C32.8649499,16.9884941 32.367266,16.8044999 31.9019708,16.3132195 C31.4366757,15.8219391 31.0664162,15.0906417 30.7911926,14.1193272 C30.6320192,13.5423828 30.5895247,12.9746184 30.663709,12.4160339 C30.7272956,11.9372471 30.8707634,11.5324867 31.0941124,11.2017525 L31.2124437,11.0425542 C31.2648106,10.9652961 31.3290409,10.8938242 31.4051348,10.8281385 C31.1664451,11.1669752 31.1726855,11.5004448 31.423856,11.8285471 C31.5193459,11.9338631 31.6352331,12.0124134 31.7715175,12.0641982 C31.907802,12.115983 32.0451691,12.1279104 32.183619,12.0999806 C32.3220689,12.0720507 32.4469904,12.0191656 32.5583836,11.9413254 C33.0678958,11.5289792 33.5240399,11.3916585 33.926816,11.5293631 C34.4421495,11.7072801 34.7927218,12.2380627 34.9785328,13.121711 C35.1880707,14.0169317 35.1222922,14.8292711 34.7811972,15.5587294 C34.4711109,16.2218732 34.0610549,16.6420689 33.5510292,16.8193165 L33.5510292,16.8193165 Z M41.8122789,15.5956443 C42.3241196,15.4194034 42.7955849,15.0399001 43.2266746,14.4571344 C43.3606305,14.2728139 43.4147263,14.0715715 43.3889618,13.853407 C43.3631974,13.6352425 43.258155,13.4591823 43.0738345,13.3252264 C42.889514,13.1912705 42.6882715,13.1371747 42.470107,13.1629392 C42.2519425,13.1887036 42.0758823,13.293746 41.9419264,13.4780665 C41.5924256,13.9537699 41.2932543,14.1456229 41.0444123,14.0536258 C40.5114291,13.8817861 39.9665472,13.1020336 39.4097668,11.7143683 C38.8529863,10.326703 38.4198815,8.61019002 38.1104524,6.56482945 C38.7154545,6.25779925 39.3971326,5.94410964 40.1554867,5.62376062 C40.3612056,5.53318367 40.5029037,5.38568187 40.5805808,5.18125521 C40.658258,4.97682854 40.6518081,4.77175577 40.5612311,4.56603688 C40.5126129,4.42483944 40.4288409,4.31055312 40.3099151,4.22317793 C40.1909893,4.13580273 40.0606366,4.08691107 39.918857,4.07650293 C39.7770774,4.0660948 39.6355889,4.08519982 39.4943915,4.133818 L38.4012756,4.6286615 C38.2249728,4.70910966 38.0516117,4.78854494 37.8811921,4.86696734 C37.7460016,3.728982 37.6728761,2.59923936 37.6618155,1.47773942 C37.659487,1.24163417 37.5778804,1.04763322 37.4169958,0.89573658 C37.2561112,0.743839937 37.0664411,0.666017252 36.8479855,0.662268526 C36.6946336,0.675587344 36.5607416,0.716754465 36.4463098,0.785769891 C36.3318779,0.854785317 36.2369061,0.951649046 36.1613944,1.07636108 C36.0858827,1.20107311 36.0459614,1.34314376 36.0416306,1.50257302 C36.0550197,2.8601782 36.1542007,4.2375985 36.3391737,5.63483391 C35.7755482,5.94735925 35.3517464,6.22161056 35.0677682,6.45758786 C34.78379,6.69356515 34.6172823,6.86935187 34.5682451,6.98494799 C34.5192079,7.10054412 34.4925239,7.23805681 34.488193,7.39748606 C34.4844443,7.61594163 34.5601191,7.80704948 34.7152175,7.9708096 C34.8703159,8.13456972 35.0570929,8.21832414 35.2755485,8.22207287 C35.3759514,8.22698587 35.4702771,8.21424919 35.5585255,8.18386282 C35.805621,8.09878101 35.9693811,7.94368262 36.0498059,7.71856764 L36.1709398,7.63079263 L36.1709398,7.63079263 L36.3468544,7.5109936 L36.3468544,7.5109936 L36.5775498,7.35917054 L36.5775498,7.35917054 C36.8930562,9.42218079 37.4097874,11.2382235 38.1277436,12.8072986 C38.8456998,14.3763737 39.6518692,15.3129359 40.5462518,15.6169851 C40.9666775,15.7486124 41.3886866,15.7414988 41.8122789,15.5956443 Z" id="Shape" fill="#000000" fill-rule="nonzero"/><path style="fill: rgb(255, 4, 180); fill-opacity: 1; stroke: rgb(0, 0, 0); stroke-opacity: 1; stroke-width: 0; paint-order: fill;" d="M -4.211081504821777 29.36861228942871"/><path d="M 21.170631408691406 29.36861228942871" style="fill: rgb(255, 4, 180); fill-opacity: 1; stroke: rgb(0, 0, 0); stroke-opacity: 1; stroke-width: 0; paint-order: fill;"/></g></g><path _ngcontent-jvn-c40="" d="M29.131857,20.0507038 C29.2554047,20.0081629 29.3610117,19.9421861 29.448678,19.8527735 C29.5363443,19.7633608 29.5987643,19.6579633 29.635938,19.536581 C29.6731117,19.4151986 29.6880778,19.2866563 29.6808363,19.150954 C29.0292632,14.7358792 27.8976335,12.2234194 26.2859472,11.6135746 C25.4980447,11.3320881 24.7647098,11.4957554 24.0859424,12.1045766 C23.4010977,12.6957481 22.878884,13.6158952 22.5193013,14.8650178 C22.1375974,13.8711406 21.7210484,13.234751 21.2696541,12.9558489 C20.919245,12.7408862 20.5587188,12.6972161 20.1880755,12.8248389 C19.9762793,12.8977661 19.8211985,13.0350693 19.722833,13.2367484 C19.6244676,13.4384275 19.6117485,13.6451651 19.6846757,13.8569613 C19.8183757,14.2452542 20.0887792,14.4285384 20.4958861,14.4068138 C20.6430013,14.5813658 20.7915706,14.8429981 20.9415938,15.1917106 L21.0705413,15.5119328 C21.135193,15.6827068 21.2001118,15.8694751 21.2652977,16.0722377 L21.3960255,16.4990887 L21.3960255,16.4990887 L21.5274655,16.9685913 L21.5274655,16.9685913 L21.6596176,17.4807453 L21.6596176,17.4807453 L21.7924819,18.0355509 L21.7924819,18.0355509 L21.9260584,18.6330081 L21.9260584,18.6330081 L22.060347,19.2731167 L22.060347,19.2731167 L22.1953478,19.9558769 C22.2179073,20.0732246 22.2404964,20.1923494 22.2631152,20.3132514 C22.3134798,20.6315277 22.3668831,20.958629 22.4233249,21.294555 C22.4786025,21.5124285 22.5953629,21.6795183 22.7736061,21.7958245 C22.9518493,21.9121307 23.1529463,21.9514699 23.376897,21.913842 C23.5947704,21.8585644 23.767792,21.7446971 23.8959617,21.5722401 C24.0241314,21.3997831 24.0694023,21.2015792 24.0317744,20.9776285 L23.8542061,20.0319153 L23.8542061,20.0319153 C23.6327695,18.5287818 23.6692908,17.1441199 23.9637699,15.8779297 C24.258249,14.6117395 24.6541673,13.7548217 25.151525,13.3071762 C25.3505844,13.1399233 25.5389447,13.0849367 25.7166058,13.1422166 C26.1254591,13.2975709 26.5278977,13.8499791 26.9239216,14.799441 C27.0724305,15.1554892 27.2194693,15.5939432 27.3650379,16.1148029 L27.5101164,16.6631311 C27.5583126,16.8550634 27.6063454,17.0561519 27.6542149,17.2663965 L27.7973332,17.9245991 L27.7973332,17.9245991 L27.9394714,18.6377387 C27.9866875,18.8846082 28.0337402,19.1406338 28.0806295,19.4058156 C28.1121802,19.6121166 28.2157033,19.7837644 28.3911989,19.9207589 C28.5666946,20.0577535 28.7664178,20.1074368 28.9903685,20.0698089 C29.0317451,20.075304 29.0789079,20.0689357 29.131857,20.0507038 Z M34.0296432,18.3642608 C34.9474266,18.0482426 35.669736,17.365202 36.1965717,16.3151388 C36.7234073,15.2650756 36.8474669,14.0773078 36.5687504,12.7518354 C36.247493,11.3028152 35.5447652,10.3799909 34.4605669,9.98336247 C34.1940753,9.89744262 33.9220886,9.8528994 33.6446067,9.84973281 C33.6908963,9.754825 33.713459,9.64834478 33.7122947,9.53029216 C33.7160435,9.31183659 33.6403686,9.12072874 33.4852702,8.95696862 C33.3301718,8.7932085 33.1433948,8.70945408 32.9249393,8.70570535 C31.6495052,8.67105845 30.6504239,9.12365212 29.9276954,10.0634863 C29.4905284,10.6286023 29.2109162,11.307277 29.088859,12.0995103 C28.9668017,12.8917436 29.0190758,13.7029187 29.2456813,14.5330359 C29.6806604,16.140321 30.3232153,17.2467381 31.1733457,17.8522872 C32.0234762,18.4578363 32.8931132,18.6470171 33.7822566,18.4198295 C33.8765823,18.4070928 33.9590445,18.3885699 34.0296432,18.3642608 Z M33.5510292,16.8193165 L33.3950224,16.8652023 C32.8649499,16.9884941 32.367266,16.8044999 31.9019708,16.3132195 C31.4366757,15.8219391 31.0664162,15.0906417 30.7911926,14.1193272 C30.6320192,13.5423828 30.5895247,12.9746184 30.663709,12.4160339 C30.7272956,11.9372471 30.8707634,11.5324867 31.0941124,11.2017525 L31.2124437,11.0425542 C31.2648106,10.9652961 31.3290409,10.8938242 31.4051348,10.8281385 C31.1664451,11.1669752 31.1726855,11.5004448 31.423856,11.8285471 C31.5193459,11.9338631 31.6352331,12.0124134 31.7715175,12.0641982 C31.907802,12.115983 32.0451691,12.1279104 32.183619,12.0999806 C32.3220689,12.0720507 32.4469904,12.0191656 32.5583836,11.9413254 C33.0678958,11.5289792 33.5240399,11.3916585 33.926816,11.5293631 C34.4421495,11.7072801 34.7927218,12.2380627 34.9785328,13.121711 C35.1880707,14.0169317 35.1222922,14.8292711 34.7811972,15.5587294 C34.4711109,16.2218732 34.0610549,16.6420689 33.5510292,16.8193165 L33.5510292,16.8193165 Z M41.8122789,15.5956443 C42.3241196,15.4194034 42.7955849,15.0399001 43.2266746,14.4571344 C43.3606305,14.2728139 43.4147263,14.0715715 43.3889618,13.853407 C43.3631974,13.6352425 43.258155,13.4591823 43.0738345,13.3252264 C42.889514,13.1912705 42.6882715,13.1371747 42.470107,13.1629392 C42.2519425,13.1887036 42.0758823,13.293746 41.9419264,13.4780665 C41.5924256,13.9537699 41.2932543,14.1456229 41.0444123,14.0536258 C40.5114291,13.8817861 39.9665472,13.1020336 39.4097668,11.7143683 C38.8529863,10.326703 38.4198815,8.61019002 38.1104524,6.56482945 C38.7154545,6.25779925 39.3971326,5.94410964 40.1554867,5.62376062 C40.3612056,5.53318367 40.5029037,5.38568187 40.5805808,5.18125521 C40.658258,4.97682854 40.6518081,4.77175577 40.5612311,4.56603688 C40.5126129,4.42483944 40.4288409,4.31055312 40.3099151,4.22317793 C40.1909893,4.13580273 40.0606366,4.08691107 39.918857,4.07650293 C39.7770774,4.0660948 39.6355889,4.08519982 39.4943915,4.133818 L38.4012756,4.6286615 C38.2249728,4.70910966 38.0516117,4.78854494 37.8811921,4.86696734 C37.7460016,3.728982 37.6728761,2.59923936 37.6618155,1.47773942 C37.659487,1.24163417 37.5778804,1.04763322 37.4169958,0.89573658 C37.2561112,0.743839937 37.0664411,0.666017252 36.8479855,0.662268526 C36.6946336,0.675587344 36.5607416,0.716754465 36.4463098,0.785769891 C36.3318779,0.854785317 36.2369061,0.951649046 36.1613944,1.07636108 C36.0858827,1.20107311 36.0459614,1.34314376 36.0416306,1.50257302 C36.0550197,2.8601782 36.1542007,4.2375985 36.3391737,5.63483391 C35.7755482,5.94735925 35.3517464,6.22161056 35.0677682,6.45758786 C34.78379,6.69356515 34.6172823,6.86935187 34.5682451,6.98494799 C34.5192079,7.10054412 34.4925239,7.23805681 34.488193,7.39748606 C34.4844443,7.61594163 34.5601191,7.80704948 34.7152175,7.9708096 C34.8703159,8.13456972 35.0570929,8.21832414 35.2755485,8.22207287 C35.3759514,8.22698587 35.4702771,8.21424919 35.5585255,8.18386282 C35.805621,8.09878101 35.9693811,7.94368262 36.0498059,7.71856764 L36.1709398,7.63079263 L36.1709398,7.63079263 L36.3468544,7.5109936 L36.3468544,7.5109936 L36.5775498,7.35917054 L36.5775498,7.35917054 C36.8930562,9.42218079 37.4097874,11.2382235 38.1277436,12.8072986 C38.8456998,14.3763737 39.6518692,15.3129359 40.5462518,15.6169851 C40.9666775,15.7486124 41.3886866,15.7414988 41.8122789,15.5956443 Z" id="path-1" fill="#000000" fill-rule="nonzero" transform="matrix(12.627509734851262, 0, 0, 12.627509734851262, 251.01799344031184, 236.73109112240022)"/></svg>